<?xml version="1.0" encoding="UTF-8"?>
<svg width="500" height="500" viewBox="0 0 500 500" xmlns="http://www.w3.org/2000/svg">
    <path id="Path" fill="#ffffff" stroke="none" d="M 443.623718 247.081818 L 388.178192 234.199982 L 378.277222 230.236359 L 123.8218 232.218201 L 123.8218 355.090912 L 443.623718 356.081818 Z"/>
    <path id="path1" fill="#f48120" stroke="none" d="M 339.66333 344.190918 C 342.895569 335.627747 341.78891 326.028717 336.693085 318.427246 C 331.483032 312.175537 324.002686 308.254059 315.901031 307.527283 L 143.623779 305.545471 C 142.633698 305.545471 141.643539 304.554535 140.653458 304.554535 C 140.18602 304.203674 139.910904 303.652985 139.910904 303.068176 C 139.910904 302.483368 140.18602 301.932709 140.653458 301.581818 C 141.643539 299.599976 142.633698 298.60907 144.613861 298.60907 L 317.881195 296.627258 C 340.278748 294.139587 359.588074 279.74054 368.376221 258.972717 L 378.277222 233.209106 C 378.277222 232.218201 379.267303 231.227264 378.277222 230.236359 C 367.216553 180.929657 324.772125 144.97934 274.355042 142.214539 C 223.937958 139.449677 177.822876 170.543457 161.445511 218.345459 C 151.098618 210.949615 138.477859 207.44101 125.801964 208.436371 C 101.842003 211.110138 82.929001 230.038605 80.257423 254.018173 C 79.59816 259.977478 79.932762 266.005005 81.247513 271.854553 C 42.109322 272.937347 10.945019 305.005707 10.950495 344.190918 C 10.788012 347.852295 11.121061 351.51886 11.940579 355.090912 C 12.0347 356.692078 13.311037 357.969452 14.910906 358.063629 L 332.732666 358.063629 C 334.71283 358.063629 336.693085 357.072754 336.693085 355.090912 Z"/>
    <path id="path2" fill="#faad3f" stroke="none" d="M 394.118774 233.209106 L 389.168274 233.209106 C 388.178192 233.209106 387.18811 234.199982 386.198029 235.190918 L 379.267303 258.972717 C 376.035065 267.535889 377.141785 277.134918 382.23761 284.736359 C 387.447662 290.988098 394.92804 294.909576 403.029694 295.636353 L 439.663391 297.618195 C 440.653473 297.618195 441.643555 298.60907 442.633636 298.60907 C 443.101166 298.959961 443.376282 299.510651 443.376282 300.095459 C 443.376282 300.680267 443.101166 301.230957 442.633636 301.581818 C 441.643555 303.563629 440.653473 304.554535 438.673248 304.554535 L 401.04953 306.536377 C 378.651947 309.024017 359.342651 323.423096 350.554474 344.190918 L 348.574249 353.10907 C 347.584167 354.099976 348.574249 356.081818 350.554474 356.081818 L 481.247528 356.081818 C 482.065613 356.198761 482.890869 355.923401 483.47522 355.338623 C 484.059509 354.753815 484.334625 353.927795 484.217865 353.10907 C 486.575043 344.713318 487.904877 336.062103 488.178192 327.345459 C 487.851624 275.491364 445.930542 233.53595 394.118774 233.209106"/>
</svg>
