<?xml version="1.0" encoding="UTF-8"?>
<svg width="330" height="330" viewBox="0 0 330 330" xmlns="http://www.w3.org/2000/svg">
    <path id="Path" fill="#ffffff" stroke="#000000" stroke-width="12" d="M 252 14 L 298 14 L 197 129 L 315 285 L 222.399994 285 L 149.899994 190.199997 L 66.900002 285 L 20.9 285 L 127.900002 162 L 14.9 14 L 109.800003 14 L 175.300003 100.600006 Z M 235.899994 258 L 261.399994 258 L 96.400002 40 L 69 40 Z"/>
    <g id="wrench-951">
        <path id="path1" fill="#6363ff" stroke="none" d="M 106 278.738647 C 106 265.350403 111.234573 252.230438 121.107452 242.360046 C 134.602539 228.862457 154.681213 223.998077 172.859329 229.652496 L 228.93898 173.57283 C 223.284561 155.404663 228.143982 135.321014 241.644043 121.818466 C 256.383789 107.078705 278.372955 102.676407 297.664063 110.604034 L 302.779388 112.705811 L 271.742157 143.743027 C 266.003265 149.484406 266.000793 158.823135 271.742157 164.564514 C 277.483551 170.303406 286.824768 170.303406 292.56366 164.564514 L 323.598419 133.529785 L 325.700195 138.645096 C 333.627808 157.938705 329.222992 179.925369 314.485718 194.665131 C 300.988159 208.162689 280.907013 213.024612 262.733856 207.370193 L 206.65419 263.447357 C 212.313583 281.618042 207.449188 301.701691 193.949142 315.201721 C 179.209366 329.94397 157.220215 334.341309 137.929092 326.416168 L 132.813797 324.31189 L 163.851013 293.277191 C 166.616119 290.512085 168.139023 286.815338 168.139023 282.865173 C 168.139023 278.915039 166.616119 275.220795 163.851013 272.453186 C 158.109634 266.714294 148.768402 266.714294 143.02951 272.453186 L 111.994789 303.490417 L 109.890526 298.37262 C 107.274483 292.002686 106.002487 285.337158 106 278.738647 Z M 114.886597 290.176666"/>
    </g>
</svg>
