<?xml version="1.0" encoding="UTF-8"?>
<svg width="500" height="500" viewBox="0 0 500 500" xmlns="http://www.w3.org/2000/svg">
    <g id="wrench-951-copy">
        <path id="Path" fill="#6363ff" stroke="#000000" stroke-width="45" d="M 26 370.839661 C 26 344.05719 36.471466 317.811493 56.221607 298.066315 C 83.217773 271.065155 123.384033 261.334229 159.748337 272.645569 L 271.932556 160.461365 C 260.621185 124.116943 270.342194 83.940735 297.348297 56.929657 C 326.834381 27.443573 370.822418 18.637024 409.413208 34.495789 L 419.646149 38.700287 L 357.557922 100.788483 C 346.077576 112.273804 346.072601 130.955414 357.557922 142.440704 C 369.043213 153.921051 387.729828 153.921051 399.210144 142.440704 L 461.293427 80.357483 L 465.497925 90.590363 C 481.356689 129.186157 472.545105 173.16925 443.064026 202.655304 C 416.062897 229.656433 375.891663 239.382416 339.537292 228.071075 L 227.353088 340.250305 C 238.674393 376.599731 228.943436 416.77594 201.937332 443.782043 C 172.451248 473.273041 128.463181 482.069641 89.872375 466.215881 L 79.639488 462.006409 L 141.727722 399.923187 C 147.25914 394.391754 150.305649 386.996643 150.305649 379.094574 C 150.305649 371.192566 147.25914 363.802399 141.727722 358.265961 C 130.242401 346.785645 111.555794 346.785645 100.07547 358.265961 L 37.992237 420.354218 L 33.782784 410.116333 C 28.549532 397.373657 26.004972 384.039581 26 370.839661 Z M 43.777138 393.720825"/>
        <path id="Path-copy" fill="#6363ff" stroke="none" d="M 26 370.839661 C 26 344.05719 36.471466 317.811493 56.221607 298.066315 C 83.217773 271.065155 123.384033 261.334229 159.748337 272.645569 L 271.932556 160.461365 C 260.621185 124.116943 270.342194 83.940735 297.348297 56.929657 C 326.834381 27.443573 370.822418 18.637024 409.413208 34.495789 L 419.646149 38.700287 L 357.557922 100.788483 C 346.077576 112.273804 346.072601 130.955414 357.557922 142.440704 C 369.043213 153.921051 387.729828 153.921051 399.210144 142.440704 L 461.293427 80.357483 L 465.497925 90.590363 C 481.356689 129.186157 472.545105 173.16925 443.064026 202.655304 C 416.062897 229.656433 375.891663 239.382416 339.537292 228.071075 L 227.353088 340.250305 C 238.674393 376.599731 228.943436 416.77594 201.937332 443.782043 C 172.451248 473.273041 128.463181 482.069641 89.872375 466.215881 L 79.639488 462.006409 L 141.727722 399.923187 C 147.25914 394.391754 150.305649 386.996643 150.305649 379.094574 C 150.305649 371.192566 147.25914 363.802399 141.727722 358.265961 C 130.242401 346.785645 111.555794 346.785645 100.07547 358.265961 L 37.992237 420.354218 L 33.782784 410.116333 C 28.549532 397.373657 26.004972 384.039581 26 370.839661 Z M 43.777138 393.720825"/>
    </g>
</svg>
