<?xml version="1.0" encoding="UTF-8"?>
<!-- Generated by Pixelmator Pro 3.6.17 -->
<svg width="750" height="750" viewBox="0 0 750 750" xmlns="http://www.w3.org/2000/svg">
    <path id="Path-copy" fill="#1d9bf0" stroke="none" d="M 642.394104 242.606506 C 642.790588 248.341949 642.790588 254.077515 642.790588 259.865875 C 642.790588 436.23938 508.521515 639.651672 263.00473 639.651672 L 263.00473 639.545959 C 190.478302 639.651672 119.458427 618.876953 58.403011 579.70636 C 68.948944 580.975037 79.547745 581.609375 90.172974 581.635803 C 150.276871 581.688721 208.662766 561.521912 255.947678 524.386475 C 198.830475 523.302795 148.743881 486.061615 131.246613 431.693237 C 151.254822 435.552155 171.870941 434.759216 191.509109 429.393738 C 129.237869 416.812622 84.437462 362.100647 84.437462 298.560699 L 84.437462 296.869171 C 102.991966 307.203644 123.76667 312.939148 145.01712 313.573486 C 86.36692 274.376434 68.288177 196.352417 103.705597 135.349854 C 171.474472 218.739319 271.462616 269.433868 378.798584 274.799316 C 368.041199 228.439453 382.736786 179.859497 417.414154 147.270142 C 471.174622 96.734253 555.727112 99.324463 606.263062 153.058533 C 636.156372 147.164429 664.807495 136.195618 691.027039 120.654175 C 681.062561 151.551941 660.208557 177.797852 632.350342 194.475769 C 658.807739 191.356934 684.657166 184.273438 709 173.463196 C 691.079834 200.317017 668.507874 223.708374 642.394104 242.606506 Z"/>
    <g id="wrench-951-copy">
        <path id="path1" fill="#6363ff" stroke="#000000" stroke-width="60.525162" d="M 262 601.839661 C 262 575.05719 272.471466 548.811523 292.221619 529.066284 C 319.217773 502.065155 359.384033 492.334229 395.748352 503.645569 L 507.932556 391.461365 C 496.621185 355.116943 506.342194 314.940735 533.348328 287.929657 C 562.834351 258.443573 606.822449 249.637024 645.413208 265.495789 L 655.646118 269.700287 L 593.557922 331.788483 C 582.077576 343.273804 582.072632 361.955414 593.557922 373.440704 C 605.043213 384.921051 623.729797 384.921051 635.210144 373.440704 L 697.293457 311.357483 L 701.497925 321.590363 C 717.356689 360.186157 708.545105 404.16925 679.064026 433.655304 C 652.062927 460.656433 611.891663 470.382416 575.537292 459.071075 L 463.353088 571.250305 C 474.674377 607.599731 464.94342 647.77594 437.937347 674.782043 C 408.451233 704.273071 364.463196 713.069641 325.872375 697.215881 L 315.639496 693.006409 L 377.727722 630.923218 C 383.259155 625.391785 386.305634 617.996643 386.305634 610.094604 C 386.305634 602.192566 383.259155 594.802368 377.727722 589.265991 C 366.242401 577.785645 347.555786 577.785645 336.07547 589.265991 L 273.992249 651.354187 L 269.782776 641.116333 C 264.54953 628.373657 262.004974 615.039612 262 601.839661 Z M 279.77713 624.720825"/>
        <path id="path2" fill="#6363ff" stroke="none" d="M 262 601.839661 C 262 575.05719 272.471466 548.811523 292.221619 529.066284 C 319.217773 502.065155 359.384033 492.334229 395.748352 503.645569 L 507.932556 391.461365 C 496.621185 355.116943 506.342194 314.940735 533.348328 287.929657 C 562.834351 258.443573 606.822449 249.637024 645.413208 265.495789 L 655.646118 269.700287 L 593.557922 331.788483 C 582.077576 343.273804 582.072632 361.955414 593.557922 373.440704 C 605.043213 384.921051 623.729797 384.921051 635.210144 373.440704 L 697.293457 311.357483 L 701.497925 321.590363 C 717.356689 360.186157 708.545105 404.16925 679.064026 433.655304 C 652.062927 460.656433 611.891663 470.382416 575.537292 459.071075 L 463.353088 571.250305 C 474.674377 607.599731 464.94342 647.77594 437.937347 674.782043 C 408.451233 704.273071 364.463196 713.069641 325.872375 697.215881 L 315.639496 693.006409 L 377.727722 630.923218 C 383.259155 625.391785 386.305634 617.996643 386.305634 610.094604 C 386.305634 602.192566 383.259155 594.802368 377.727722 589.265991 C 366.242401 577.785645 347.555786 577.785645 336.07547 589.265991 L 273.992249 651.354187 L 269.782776 641.116333 C 264.54953 628.373657 262.004974 615.039612 262 601.839661 Z M 279.77713 624.720825"/>
    </g>
</svg>
