<?xml version="1.0" encoding="UTF-8"?>
<!-- Generated by Pixelmator Pro 3.6.17 -->
<svg width="750" height="750" viewBox="0 0 750 750" xmlns="http://www.w3.org/2000/svg">
    <path id="Path-copy-3" fill="#ffffff" stroke="#000000" stroke-width="60.5" d="M 547.179626 121.358215 L 633.937378 121.358215 L 443.44751 334.656403 L 666 624 L 491.352875 624 L 354.615112 448.168121 L 198.073975 624 L 111.316231 624 L 313.122284 395.863678 L 100 121.358215 L 278.985016 121.358215 L 402.520508 281.981018 Z M 516.814392 573.921265 L 564.908325 573.921265 L 253.712097 169.582153 L 202.034653 169.582153 Z"/>
    <path id="Path-copy-4" fill="#ffffff" stroke="none" d="M 547.179626 121.358215 L 633.937378 121.358215 L 443.44751 334.656403 L 666 624 L 491.352875 624 L 354.615112 448.168121 L 198.073975 624 L 111.316231 624 L 313.122284 395.863678 L 100 121.358215 L 278.985016 121.358215 L 402.520508 281.981018 Z M 516.814392 573.921265 L 564.908325 573.921265 L 253.712097 169.582153 L 202.034653 169.582153 Z"/>
    <g id="wrench-951-copy">
        <path id="path1" fill="#6363ff" stroke="#000000" stroke-width="60.525162" d="M 262 601.839661 C 262 575.05719 272.471466 548.811523 292.221619 529.066284 C 319.217773 502.065155 359.384033 492.334229 395.748352 503.645569 L 507.932556 391.461365 C 496.621185 355.116943 506.342194 314.940735 533.348328 287.929657 C 562.834351 258.443573 606.822449 249.637024 645.413208 265.495789 L 655.646118 269.700287 L 593.557922 331.788483 C 582.077576 343.273804 582.072632 361.955414 593.557922 373.440704 C 605.043213 384.921051 623.729797 384.921051 635.210144 373.440704 L 697.293457 311.357483 L 701.497925 321.590363 C 717.356689 360.186157 708.545105 404.16925 679.064026 433.655304 C 652.062927 460.656433 611.891663 470.382416 575.537292 459.071075 L 463.353088 571.250305 C 474.674377 607.599731 464.94342 647.77594 437.937347 674.782043 C 408.451233 704.273071 364.463196 713.069641 325.872375 697.215881 L 315.639496 693.006409 L 377.727722 630.923218 C 383.259155 625.391785 386.305634 617.996643 386.305634 610.094604 C 386.305634 602.192566 383.259155 594.802368 377.727722 589.265991 C 366.242401 577.785645 347.555786 577.785645 336.07547 589.265991 L 273.992249 651.354187 L 269.782776 641.116333 C 264.54953 628.373657 262.004974 615.039612 262 601.839661 Z M 279.77713 624.720825"/>
        <path id="path2" fill="#6363ff" stroke="none" d="M 262 601.839661 C 262 575.05719 272.471466 548.811523 292.221619 529.066284 C 319.217773 502.065155 359.384033 492.334229 395.748352 503.645569 L 507.932556 391.461365 C 496.621185 355.116943 506.342194 314.940735 533.348328 287.929657 C 562.834351 258.443573 606.822449 249.637024 645.413208 265.495789 L 655.646118 269.700287 L 593.557922 331.788483 C 582.077576 343.273804 582.072632 361.955414 593.557922 373.440704 C 605.043213 384.921051 623.729797 384.921051 635.210144 373.440704 L 697.293457 311.357483 L 701.497925 321.590363 C 717.356689 360.186157 708.545105 404.16925 679.064026 433.655304 C 652.062927 460.656433 611.891663 470.382416 575.537292 459.071075 L 463.353088 571.250305 C 474.674377 607.599731 464.94342 647.77594 437.937347 674.782043 C 408.451233 704.273071 364.463196 713.069641 325.872375 697.215881 L 315.639496 693.006409 L 377.727722 630.923218 C 383.259155 625.391785 386.305634 617.996643 386.305634 610.094604 C 386.305634 602.192566 383.259155 594.802368 377.727722 589.265991 C 366.242401 577.785645 347.555786 577.785645 336.07547 589.265991 L 273.992249 651.354187 L 269.782776 641.116333 C 264.54953 628.373657 262.004974 615.039612 262 601.839661 Z M 279.77713 624.720825"/>
    </g>
</svg>
