<?xml version="1.0" encoding="UTF-8"?>
<!-- Generated by Pixelmator Pro 3.6.17 -->
<svg width="750" height="750" viewBox="0 0 750 750" xmlns="http://www.w3.org/2000/svg">
    <path id="Path" fill="#1185fe" stroke="none" d="M 203.346283 219.765442 C 272.531769 271.705505 346.948608 377.018402 374.270721 433.535431 C 401.59491 377.022583 476.007599 271.704498 545.195129 219.765442 C 595.115723 182.287537 676 153.289246 676 245.563293 C 676 263.991638 665.434265 400.371216 659.237366 422.511932 C 637.697021 499.488251 559.204773 519.12146 489.384613 507.238525 C 611.428894 528.01001 642.475769 596.812622 575.426331 665.615173 C 448.086212 796.28479 392.40152 632.829712 378.126587 590.946594 C 375.510925 583.268433 374.286926 579.676453 374.268951 582.730774 C 374.250824 579.676331 373.026947 583.268372 370.411285 590.946594 C 356.142609 632.829712 300.458984 796.289001 173.111542 665.615173 C 106.061058 596.812622 137.106918 528.005859 259.15329 507.238525 C 189.331055 519.12146 110.837738 499.488159 89.300514 422.511932 C 83.103409 400.369141 72.537895 263.989594 72.537895 245.563293 C 72.537895 153.289246 153.424225 182.287537 203.342743 219.765442 Z"/>
    <g id="wrench-951-copy">
        <path id="path1" fill="#6363ff" stroke="#000000" stroke-width="60.525162" d="M 262 601.839661 C 262 575.05719 272.471466 548.811523 292.221619 529.066284 C 319.217773 502.065155 359.384033 492.334229 395.748352 503.645569 L 507.932556 391.461365 C 496.621185 355.116943 506.342194 314.940735 533.348328 287.929657 C 562.834351 258.443573 606.822449 249.637024 645.413208 265.495789 L 655.646118 269.700287 L 593.557922 331.788483 C 582.077576 343.273804 582.072632 361.955414 593.557922 373.440704 C 605.043213 384.921051 623.729797 384.921051 635.210144 373.440704 L 697.293457 311.357483 L 701.497925 321.590363 C 717.356689 360.186157 708.545105 404.16925 679.064026 433.655304 C 652.062927 460.656433 611.891663 470.382416 575.537292 459.071075 L 463.353088 571.250305 C 474.674377 607.599731 464.94342 647.77594 437.937347 674.782043 C 408.451233 704.273071 364.463196 713.069641 325.872375 697.215881 L 315.639496 693.006409 L 377.727722 630.923218 C 383.259155 625.391785 386.305634 617.996643 386.305634 610.094604 C 386.305634 602.192566 383.259155 594.802368 377.727722 589.265991 C 366.242401 577.785645 347.555786 577.785645 336.07547 589.265991 L 273.992249 651.354187 L 269.782776 641.116333 C 264.54953 628.373657 262.004974 615.039612 262 601.839661 Z M 279.77713 624.720825"/>
        <path id="path2" fill="#6363ff" stroke="none" d="M 262 601.839661 C 262 575.05719 272.471466 548.811523 292.221619 529.066284 C 319.217773 502.065155 359.384033 492.334229 395.748352 503.645569 L 507.932556 391.461365 C 496.621185 355.116943 506.342194 314.940735 533.348328 287.929657 C 562.834351 258.443573 606.822449 249.637024 645.413208 265.495789 L 655.646118 269.700287 L 593.557922 331.788483 C 582.077576 343.273804 582.072632 361.955414 593.557922 373.440704 C 605.043213 384.921051 623.729797 384.921051 635.210144 373.440704 L 697.293457 311.357483 L 701.497925 321.590363 C 717.356689 360.186157 708.545105 404.16925 679.064026 433.655304 C 652.062927 460.656433 611.891663 470.382416 575.537292 459.071075 L 463.353088 571.250305 C 474.674377 607.599731 464.94342 647.77594 437.937347 674.782043 C 408.451233 704.273071 364.463196 713.069641 325.872375 697.215881 L 315.639496 693.006409 L 377.727722 630.923218 C 383.259155 625.391785 386.305634 617.996643 386.305634 610.094604 C 386.305634 602.192566 383.259155 594.802368 377.727722 589.265991 C 366.242401 577.785645 347.555786 577.785645 336.07547 589.265991 L 273.992249 651.354187 L 269.782776 641.116333 C 264.54953 628.373657 262.004974 615.039612 262 601.839661 Z M 279.77713 624.720825"/>
    </g>
</svg>
