<?xml version="1.0" encoding="UTF-8"?>
<!-- Generated by Pixelmator Pro 3.6.17 -->
<svg width="550" height="550" viewBox="0 0 550 550" xmlns="http://www.w3.org/2000/svg">
    <g id="wrench-951-copy">
        <path id="Rectangle" fill="#2b2d31" fill-rule="evenodd" stroke="none" d="M 0 550 L 550 550 L 550 0 L 0 0 Z"/>
        <path id="Path" fill="#6363ff" stroke="#000000" stroke-width="45" d="M 51 395.839661 C 51 369.05719 61.471466 342.811493 81.221611 323.066315 C 108.217773 296.065155 148.384033 286.334229 184.748337 297.645569 L 296.932556 185.461365 C 285.621185 149.116943 295.342194 108.940735 322.348297 81.929657 C 351.834381 52.443573 395.822418 43.637024 434.413208 59.495789 L 444.646149 63.700287 L 382.557922 125.788483 C 371.077576 137.273804 371.072601 155.955414 382.557922 167.440704 C 394.043213 178.921051 412.729828 178.921051 424.210144 167.440704 L 486.293427 105.357483 L 490.497925 115.590363 C 506.356689 154.186157 497.545105 198.16925 468.064026 227.655304 C 441.062897 254.656433 400.891663 264.382416 364.537292 253.071075 L 252.353088 365.250305 C 263.674377 401.599731 253.943436 441.77594 226.937332 468.782043 C 197.451248 498.273041 153.463181 507.069641 114.872375 491.215881 L 104.639488 487.006409 L 166.727722 424.923187 C 172.25914 419.391754 175.305649 411.996643 175.305649 404.094604 C 175.305649 396.192566 172.25914 388.802399 166.727722 383.265961 C 155.242401 371.785645 136.555786 371.785645 125.07547 383.265961 L 62.992237 445.354218 L 58.782784 435.116333 C 53.54953 422.373657 51.004971 409.039612 51 395.839661 Z M 68.777138 418.720825"/>
        <path id="Path-copy" fill="#6363ff" stroke="none" d="M 51 395.839661 C 51 369.05719 61.471466 342.811493 81.221611 323.066315 C 108.217773 296.065155 148.384033 286.334229 184.748337 297.645569 L 296.932556 185.461365 C 285.621185 149.116943 295.342194 108.940735 322.348297 81.929657 C 351.834381 52.443573 395.822418 43.637024 434.413208 59.495789 L 444.646149 63.700287 L 382.557922 125.788483 C 371.077576 137.273804 371.072601 155.955414 382.557922 167.440704 C 394.043213 178.921051 412.729828 178.921051 424.210144 167.440704 L 486.293427 105.357483 L 490.497925 115.590363 C 506.356689 154.186157 497.545105 198.16925 468.064026 227.655304 C 441.062897 254.656433 400.891663 264.382416 364.537292 253.071075 L 252.353088 365.250305 C 263.674377 401.599731 253.943436 441.77594 226.937332 468.782043 C 197.451248 498.273041 153.463181 507.069641 114.872375 491.215881 L 104.639488 487.006409 L 166.727722 424.923187 C 172.25914 419.391754 175.305649 411.996643 175.305649 404.094604 C 175.305649 396.192566 172.25914 388.802399 166.727722 383.265961 C 155.242401 371.785645 136.555786 371.785645 125.07547 383.265961 L 62.992237 445.354218 L 58.782784 435.116333 C 53.54953 422.373657 51.004971 409.039612 51 395.839661 Z M 68.777138 418.720825"/>
    </g>
</svg>
